<svg version="1.1"
     x="0px" y="0px" width="24.384px" height="26.254px" viewBox="0 0 24.384 26.254">
    <g id="Shape_1_1_">
        <g>
            <path fill-rule="evenodd" clip-rule="evenodd" d="M24.378,8.124c0-0.011-0.005-0.027-0.005-0.038
			s-0.005-0.022-0.005-0.032c-0.005-0.011-0.005-0.022-0.011-0.038c-0.005-0.011-0.005-0.022-0.011-0.032s-0.005-0.022-0.011-0.032
			s-0.011-0.022-0.016-0.038c-0.005-0.011-0.011-0.022-0.016-0.027c-0.005-0.011-0.011-0.022-0.016-0.032s-0.011-0.016-0.016-0.027
			c-0.005-0.011-0.016-0.022-0.021-0.032c-0.005-0.011-0.011-0.016-0.022-0.027c-0.005-0.011-0.016-0.016-0.021-0.027
			s-0.016-0.016-0.022-0.027c-0.005-0.011-0.016-0.016-0.022-0.022c-0.011-0.011-0.016-0.016-0.027-0.027
			c-0.011-0.005-0.016-0.016-0.027-0.022c-0.011-0.005-0.021-0.016-0.032-0.022c-0.011-0.005-0.016-0.011-0.027-0.016
			c-0.011-0.005-0.021-0.011-0.032-0.022c-0.011-0.005-0.022-0.011-0.032-0.016c-0.011-0.005-0.021-0.011-0.032-0.016
			c-0.011-0.005-0.022-0.011-0.032-0.016c-0.011-0.005-0.021-0.005-0.032-0.011C23.877,7.52,23.86,7.515,23.85,7.515
			s-0.021-0.005-0.027-0.005c-0.016-0.005-0.027-0.005-0.043-0.005c-0.005,0-0.011-0.005-0.022-0.005L5.434,4.968V2.41
			c0-0.027,0-0.054-0.005-0.076c0-0.005,0-0.011-0.005-0.022c0-0.016-0.005-0.032-0.005-0.049C5.412,2.248,5.412,2.238,5.407,2.221
			c0-0.011-0.005-0.016-0.005-0.027C5.396,2.178,5.391,2.162,5.386,2.146c0-0.005-0.005-0.016-0.005-0.022
			C5.375,2.108,5.369,2.097,5.358,2.081C5.353,2.076,5.353,2.065,5.348,2.059C5.342,2.049,5.337,2.038,5.326,2.027
			C5.321,2.016,5.315,2.011,5.31,2S5.299,1.984,5.294,1.973S5.278,1.952,5.272,1.941C5.267,1.935,5.262,1.93,5.256,1.925
			L5.224,1.892C5.218,1.887,5.213,1.881,5.208,1.876C5.197,1.865,5.186,1.854,5.17,1.844C5.164,1.838,5.154,1.833,5.148,1.827
			C5.138,1.817,5.127,1.811,5.116,1.8C5.1,1.79,5.084,1.779,5.073,1.774C5.067,1.768,5.062,1.768,5.056,1.763
			C5.035,1.752,5.008,1.741,4.986,1.73L1.012,0.058C0.64-0.099,0.214,0.074,0.058,0.446c-0.156,0.372,0.016,0.799,0.388,0.955
			L3.973,2.89v15.961c0,1.511,1.132,2.763,2.594,2.951c-0.264,0.442-0.421,0.96-0.421,1.511c0,1.624,1.321,2.941,2.939,2.941
			c1.618,0,2.939-1.322,2.939-2.941c0-0.54-0.146-1.052-0.404-1.484h6.547c-0.259,0.437-0.404,0.944-0.404,1.484
			c0,1.624,1.321,2.941,2.939,2.941c1.618,0,2.939-1.322,2.939-2.941s-1.321-2.941-2.939-2.941H6.949
			c-0.841,0-1.521-0.685-1.521-1.522v-1.975c0.442,0.259,0.965,0.41,1.521,0.41h14.458c1.639,0,2.977-1.338,2.977-2.978V8.157
			C24.384,8.146,24.384,8.135,24.378,8.124z M20.706,21.824c0.814,0,1.483,0.664,1.483,1.484c0,0.82-0.669,1.484-1.483,1.484
			c-0.814,0-1.483-0.669-1.483-1.484S19.892,21.824,20.706,21.824z M9.09,21.824c0.814,0,1.483,0.664,1.483,1.484
			c0,0.82-0.669,1.484-1.483,1.484c-0.814,0-1.483-0.669-1.483-1.484S8.276,21.824,9.09,21.824z M22.928,14.303
			c0,0.847-0.685,1.527-1.521,1.527H6.949c-0.841,0-1.521-0.685-1.521-1.522V6.435l17.499,2.412V14.303z"/>
        </g>
    </g>
</svg>